<svg width="14" height="12" viewBox="0 0 14 12" fill="none" xmlns="http://www.w3.org/2000/svg">
<path d="M0.0011547 6.00279C-0.000845299 6.01979 0.000154701 5.98979 0.0011547 6.00279V6.00279ZM13.5012 5.50279H1.09215C1.16615 5.29679 1.28715 5.10279 1.45415 4.93879L5.40215 0.895791C5.59515 0.697791 5.59116 0.380791 5.39316 0.188791C5.19616 -0.00420924 4.88016 0.000790671 4.68616 0.196791L0.745155 4.23379C0.266155 4.70679 0.0011547 5.37479 0.0011547 6.00379C0.0081547 6.62779 0.248155 7.28879 0.717155 7.76479L4.64015 11.8508C4.73815 11.9528 4.86915 12.0038 5.00115 12.0038C5.12615 12.0038 5.25115 11.9578 5.34715 11.8638C5.54615 11.6738 5.55315 11.3558 5.36215 11.1568L1.43415 7.06579C1.27215 6.90179 1.15515 6.70879 1.08515 6.50379H13.5012C13.7772 6.50379 14.0012 6.27979 14.0012 6.00379C14.0012 5.72779 13.7772 5.50379 13.5012 5.50379V5.50279Z" fill="black"/>
</svg>
