<svg width="20" height="20" viewBox="0 0 20 20" fill="none" xmlns="http://www.w3.org/2000/svg">
<g clip-path="url(#clip0_6260_1757)">
<path d="M16.25 20.0031H3.75C1.6825 20.0031 0 18.3206 0 16.2531V7.97062C0 6.72312 0.6175 5.56062 1.6525 4.86312L7.9025 0.645625C9.175 -0.215208 10.8233 -0.215208 12.0975 0.645625L18.3467 4.86312C19.3817 5.56146 19.9992 6.72312 19.9992 7.97062V16.2531C19.9992 18.3206 18.3175 20.0031 16.25 20.0031ZM10 0.833125C9.43167 0.833125 8.86417 1.00062 8.36917 1.33562L2.11833 5.55229C1.31333 6.09562 0.833333 6.99896 0.833333 7.96979V16.2523C0.833333 17.8606 2.14167 19.169 3.75 19.169H16.25C17.8583 19.169 19.1667 17.8606 19.1667 16.2523V7.97062C19.1667 6.99979 18.6867 6.09646 17.8817 5.55312L11.6317 1.33562C11.1358 1.00146 10.5683 0.833125 10 0.833125Z" fill="#1565C0"/>
</g>
<defs>
<clipPath id="clip0_6260_1757">
<rect width="20" height="20" fill="white"/>
</clipPath>
</defs>
</svg>
