<svg width="20" height="20" viewBox="0 0 20 20" fill="none" xmlns="http://www.w3.org/2000/svg">
<g clip-path="url(#clip0_6548_3572)">
<path d="M20 19.1701V20.0034H2.08333C0.935 20.0034 0 19.0684 0 17.9201V0.0234375H0.833333V17.9201C0.833333 18.6093 1.39417 19.1701 2.08333 19.1701H20ZM5 16.6901V10.0234H4.16667V16.6901H5ZM8.33333 16.6901H9.16667V8.35677H8.33333V16.6901ZM12.5 16.6901H13.3333V10.8568H12.5V16.6901ZM17.5 16.6901V7.50344H16.6667V16.6901H17.5ZM8.33333 3.0926L12.5 7.25927L19.045 0.715104L18.4558 0.125937L12.5008 6.08094L8.33417 1.91427L3.45583 6.7926L4.045 7.38177L8.33333 3.0926Z" fill="black"/>
</g>
<defs>
<clipPath id="clip0_6548_3572">
<rect width="20" height="20" fill="white"/>
</clipPath>
</defs>
</svg>
