<svg width="20" height="20" viewBox="0 0 20 20" fill="none" xmlns="http://www.w3.org/2000/svg">
<g clip-path="url(#clip0_6548_3612)">
<path d="M10.0026 20C8.87094 20 7.80177 19.5658 6.9926 18.7775L3.53344 15.5958C1.78927 13.86 0.835938 11.5675 0.835938 9.12833C0.835938 6.68917 1.78927 4.39667 3.52094 2.6725C5.2526 0.949167 7.55427 0 10.0026 0C12.4509 0 14.7526 0.949167 16.4834 2.67333C18.2151 4.3975 19.1693 6.69083 19.1693 9.12917C19.1693 11.5675 18.2151 13.8608 16.4834 15.585L13.0034 18.7867C12.2034 19.5667 11.1343 20.0008 10.0018 20.0008L10.0026 20ZM10.0026 0.833333C7.77594 0.833333 5.68344 1.69667 4.10927 3.26417C2.5351 4.83083 1.66927 6.91333 1.66927 9.12917C1.66927 11.345 2.53594 13.4275 4.10927 14.9942L7.5651 18.1725C8.8876 19.4608 11.1259 19.4525 12.4301 18.1808L15.9068 14.9825C17.4684 13.4275 18.3351 11.3442 18.3351 9.12917C18.3351 6.91417 17.4684 4.83083 15.8943 3.26417C14.3201 1.69667 12.2276 0.833333 10.0018 0.833333H10.0026ZM10.4193 12.5V11.5275C10.4193 10.7833 10.9201 9.9675 11.6093 9.5875C12.8593 8.89833 13.5318 7.48333 13.2834 6.06583C13.0476 4.72333 11.9459 3.62083 10.6034 3.38583C9.61594 3.21333 8.61677 3.4775 7.8601 4.11333C7.10344 4.74917 6.66927 5.68 6.66927 6.66667C6.66927 6.89667 6.85594 7.08333 7.08594 7.08333C7.31594 7.08333 7.5026 6.89667 7.5026 6.66667C7.5026 5.92583 7.82844 5.2275 8.39594 4.75167C8.97177 4.2675 9.7051 4.075 10.4593 4.2075C11.4626 4.38333 12.2868 5.2075 12.4626 6.21083C12.6534 7.29417 12.1601 8.33333 11.2076 8.85833C10.2526 9.385 9.58594 10.4825 9.58594 11.5283V12.5008C9.58594 12.7308 9.7726 12.9175 10.0026 12.9175C10.2326 12.9175 10.4193 12.7308 10.4193 12.5008V12.5ZM10.8359 15C10.8359 14.54 10.4626 14.1667 10.0026 14.1667C9.5426 14.1667 9.16927 14.54 9.16927 15C9.16927 15.46 9.5426 15.8333 10.0026 15.8333C10.4626 15.8333 10.8359 15.46 10.8359 15Z" fill="black"/>
</g>
<defs>
<clipPath id="clip0_6548_3612">
<rect width="20" height="20" fill="white"/>
</clipPath>
</defs>
</svg>
