<svg width="20" height="20" viewBox="0 0 20 20" fill="none" xmlns="http://www.w3.org/2000/svg">
<g clip-path="url(#clip0_6260_1744)">
<path d="M10.8332 5.83321C10.8332 6.29321 10.4598 6.66655 9.99984 6.66655C9.53984 6.66655 9.16651 6.29321 9.16651 5.83321C9.16651 5.37321 9.53984 4.99988 9.99984 4.99988C10.4598 4.99988 10.8332 5.37321 10.8332 5.83321ZM19.9998 16.2499V10.2957C19.9998 4.89071 15.914 0.378215 10.6982 0.0232146C7.80734 -0.173452 4.96818 0.886548 2.92401 2.93321C0.880677 4.98071 -0.175989 7.81488 0.0240105 10.7115C0.391511 16.0065 5.08568 19.9999 10.944 19.9999H16.2498C18.3173 19.9999 19.9998 18.3174 19.9998 16.2499ZM10.6415 0.854881C15.4223 1.17988 19.1665 5.32655 19.1665 10.2957V16.2499C19.1665 17.8582 17.8582 19.1665 16.2498 19.1665H10.944C5.44068 19.1665 1.19818 15.5865 0.85651 10.6549C0.672344 7.99822 1.64068 5.39821 3.51401 3.52238C5.23901 1.79488 7.57901 0.833215 10.014 0.833215C10.2223 0.833215 10.4323 0.839881 10.6415 0.854048V0.854881ZM10.8332 15.4165V9.58322C10.8332 8.89405 10.2723 8.33322 9.58318 8.33322H8.74984C8.51984 8.33322 8.33318 8.51988 8.33318 8.74988C8.33318 8.97988 8.51984 9.16655 8.74984 9.16655H9.58318C9.81234 9.16655 9.99984 9.35405 9.99984 9.58322V15.4165C9.99984 15.6465 10.1865 15.8332 10.4165 15.8332C10.6465 15.8332 10.8332 15.6465 10.8332 15.4165Z" fill="black"/>
</g>
<defs>
<clipPath id="clip0_6260_1744">
<rect width="20" height="20" fill="white"/>
</clipPath>
</defs>
</svg>
