<svg width="24" height="24" viewBox="0 0 24 24" fill="none" xmlns="http://www.w3.org/2000/svg">
<g clip-path="url(#clip0_6713_2906)">
<path d="M19.239 0H4.76C2.687 0 1 1.688 1 3.761C1 4.683 1.337 5.571 1.95 6.259L9 14.191V20.501C9 20.677 9.092 20.84 9.243 20.93L14.243 23.93C14.322 23.978 14.411 24.001 14.5 24.001C14.585 24.001 14.67 23.98 14.746 23.937C14.903 23.848 15 23.681 15 23.501V14.191L22.051 6.259C22.663 5.571 23 4.683 23 3.761C23 1.688 21.312 0 19.239 0ZM21.302 5.595L14.125 13.668C14.044 13.76 13.999 13.878 13.999 14V22.617L9.999 20.217V14C9.999 13.878 9.954 13.76 9.873 13.668L2.697 5.595C2.247 5.089 2 4.438 2 3.761C2 2.239 3.238 1 4.76 1H19.239C20.761 1 22 2.238 22 3.761C22 4.438 21.752 5.089 21.302 5.595Z" fill="black"/>
</g>
<defs>
<clipPath id="clip0_6713_2906">
<rect width="24" height="24" fill="white"/>
</clipPath>
</defs>
</svg>
