<svg width="20" height="20" viewBox="0 0 20 20" fill="none" xmlns="http://www.w3.org/2000/svg">
<g clip-path="url(#clip0_6260_1746)">
<path d="M19.4832 7.375C19.0915 6.925 18.5165 6.66667 17.9165 6.66667H17.4498C17.0332 2.9 13.8332 0 9.99982 0C6.16649 0 2.96649 2.9 2.54982 6.66667H2.08315C1.48315 6.66667 0.908154 6.925 0.516487 7.375C0.12482 7.825 -0.0585131 8.425 0.0164869 9.025L0.94982 16.025C1.24982 18.2917 3.20815 20 5.49149 20H14.4998C16.7915 20 18.7415 18.2917 19.0415 16.025L19.9748 9.025C20.0498 8.43333 19.8748 7.825 19.4748 7.375H19.4832ZM9.99982 0.833333C13.3748 0.833333 16.1998 3.35833 16.6165 6.66667H3.38315C3.79149 3.35833 6.61649 0.833333 9.99982 0.833333ZM19.1582 8.91667L18.2248 15.9167C17.9748 17.775 16.3832 19.175 14.5082 19.175H5.49149C3.61649 19.175 2.02482 17.775 1.77482 15.9167L0.841487 8.91667C0.791487 8.55833 0.89982 8.2 1.14149 7.925C1.38315 7.65 1.72482 7.5 2.08315 7.5H17.9165C18.2748 7.5 18.6165 7.65833 18.8582 7.925C19.0998 8.19167 19.2082 8.55833 19.1582 8.91667Z" fill="black"/>
</g>
<defs>
<clipPath id="clip0_6260_1746">
<rect width="20" height="20" fill="white"/>
</clipPath>
</defs>
</svg>
