<svg width="11" height="20" viewBox="0 0 11 20" fill="none" xmlns="http://www.w3.org/2000/svg">
<path d="M8.72073 11.4727C9.11406 11.0785 9.33073 10.5552 9.33073 9.99938C9.33073 9.44355 9.11406 8.92022 8.71906 8.52438L0.97573 0.709382C0.814063 0.546049 0.814896 0.281882 0.978229 0.120216C1.1424 -0.0414511 1.40573 -0.0397845 1.5674 0.123549L9.3099 7.93772C9.86073 8.48855 10.1641 9.22105 10.1641 10.0002C10.1641 10.7794 9.86073 11.511 9.31073 12.061L1.5674 19.8769C1.48573 19.9594 1.37906 20.0002 1.27156 20.0002C1.16573 20.0002 1.0599 19.9602 0.978229 19.8794C0.814896 19.7177 0.814063 19.4536 0.97573 19.2902L8.72073 11.4727Z" fill="black"/>
</svg>
