<svg width="30" height="30" viewBox="0 0 30 30" fill="none" xmlns="http://www.w3.org/2000/svg">
<g clip-path="url(#clip0_6713_2769)">
<path d="M26.1791 10C25.5553 4.38375 20.7841 0 15.0028 0C9.22156 0 4.45031 4.38375 3.82656 10H-0.0234375L2.37406 26.7812C2.63656 28.6162 4.23156 30 6.08656 30H23.9191C25.7728 30 27.3691 28.6162 27.6316 26.7812L30.0291 10H26.1791ZM15.0028 2.5C19.4016 2.5 23.0428 5.7675 23.6528 10H6.35281C6.96281 5.7675 10.6041 2.5 15.0028 2.5ZM10.0028 25H7.50281V15H10.0028V25ZM16.2528 25H13.7528V15H16.2528V25ZM22.5028 25H20.0028V15H22.5028V25Z" fill="#1565C0"/>
</g>
<defs>
<clipPath id="clip0_6713_2769">
<rect width="30" height="30" fill="white"/>
</clipPath>
</defs>
</svg>
