<svg width="20" height="20" viewBox="0 0 20 20" fill="none" xmlns="http://www.w3.org/2000/svg">
<path d="M19.8781 19.2881L13.799 13.209C15.0632 11.8057 15.834 9.94906 15.834 7.91658C15.8332 3.55163 12.2815 0 7.91658 0C3.55163 0 0 3.55163 0 7.91658C0 12.2815 3.55163 15.8332 7.91658 15.8332C9.9499 15.8332 11.8057 15.0623 13.209 13.7982L19.2881 19.8773C19.3698 19.959 19.4765 19.999 19.5831 19.999C19.6898 19.999 19.7965 19.9581 19.8781 19.8773C20.0406 19.7148 20.0406 19.4506 19.8781 19.2881ZM0.833325 7.91658C0.833325 4.01079 4.01079 0.833325 7.91658 0.833325C11.8224 0.833325 14.9998 4.01079 14.9998 7.91658C14.9998 11.8224 11.8224 14.9998 7.91658 14.9998C4.01079 14.9998 0.833325 11.8224 0.833325 7.91658Z" fill="black"/>
</svg>
