<svg width="20" height="24" viewBox="0 0 20 24" fill="none" xmlns="http://www.w3.org/2000/svg">
<path d="M9.8 12C13.0355 12 15.6667 9.309 15.6667 6C15.6667 2.691 13.0355 0 9.8 0C6.56453 0 3.93333 2.691 3.93333 6C3.93333 9.309 6.56453 12 9.8 12ZM9.8 1C12.4957 1 14.6889 3.243 14.6889 6C14.6889 8.757 12.4957 11 9.8 11C7.10427 11 4.91111 8.757 4.91111 6C4.91111 3.243 7.10427 1 9.8 1ZM18.6 23V23.5C18.6 23.776 18.381 24 18.1111 24C17.8412 24 17.6222 23.776 17.6222 23.5V23C17.6222 18.589 14.113 15 9.8 15C5.48702 15 1.97778 18.589 1.97778 23V23.5C1.97778 23.776 1.75876 24 1.48889 24C1.21902 24 1 23.776 1 23.5V23C1 18.037 4.94729 14 9.8 14C14.6527 14 18.6 18.037 18.6 23Z" fill="black"/>
</svg>
