<svg width="24" height="24" viewBox="0 0 24 24" fill="none" xmlns="http://www.w3.org/2000/svg">
<g clip-path="url(#clip0_6260_1742)">
<path d="M22.2735 1.77312L21.1535 0.793125C20.1335 -0.226875 18.4035 -0.276875 17.3035 0.843125L15.4335 3.29312C14.3835 4.34312 14.3835 6.05313 15.4335 7.09313L16.9235 8.62313C15.3035 12.4231 12.3135 15.4231 8.63346 16.9231L7.10346 15.4331C6.59346 14.9231 5.92346 14.6431 5.20346 14.6431C4.48346 14.6431 3.81346 14.9231 3.35346 15.3931L0.813455 17.3531C-0.236544 18.4031 -0.236544 20.1131 0.793455 21.1331L1.81346 22.3031C2.91346 23.4031 4.39346 24.0131 6.00346 24.0131C13.7535 24.0131 24.0235 13.7331 24.0235 5.99312C24.0235 4.39312 23.4135 2.90312 22.2935 1.78312L22.2735 1.77312ZM5.98346 23.0031C4.64346 23.0031 3.41346 22.5031 2.52346 21.6131L1.50346 20.4331C0.843455 19.7731 0.843456 18.7031 1.45346 18.0831L3.99346 16.1231C4.31346 15.8031 4.73346 15.6231 5.19346 15.6231C5.65346 15.6231 6.07346 15.8031 6.39346 16.1231L8.16346 17.8531C8.30346 17.9931 8.50345 18.0331 8.69345 17.9631C12.8635 16.3731 16.2535 12.9831 17.9835 8.68313C18.0535 8.50313 18.0135 8.29313 17.8735 8.14313L16.1435 6.37313C15.4835 5.71313 15.4835 4.64312 16.1835 3.93313L18.0535 1.48312C18.7135 0.823125 19.7835 0.823125 20.4735 1.50312L21.5935 2.48312C22.5035 3.39312 23.0035 4.62313 23.0035 5.96313C23.0035 13.1231 13.1435 22.9831 5.98346 22.9831V23.0031Z" fill="white"/>
</g>
<defs>
<clipPath id="clip0_6260_1742">
<rect width="24" height="24" fill="white"/>
</clipPath>
</defs>
</svg>
