<svg width="20" height="20" viewBox="0 0 20 20" fill="none" xmlns="http://www.w3.org/2000/svg">
<g clip-path="url(#clip0_6548_3574)">
<path d="M10.2425 18.9282L10 19.1016L9.7575 18.9282C8.12833 17.7641 0 11.6724 0 6.0399C0 3.16823 2.33667 0.831562 5.20833 0.831562C7.295 0.831562 9.18917 2.37406 10 4.4599C10.8108 2.37323 12.705 0.831562 14.7917 0.831562C17.6633 0.831562 20 3.16823 20 6.0399C20 11.6724 11.8717 17.7641 10.2425 18.9282ZM14.7917 1.6649C12.5017 1.6649 10.4167 4.04823 10.4167 6.6649H9.58333C9.58333 4.04823 7.49833 1.6649 5.20833 1.6649C2.79583 1.6649 0.833333 3.6274 0.833333 6.0399C0.833333 10.0157 5.715 14.9624 10 18.0757C14.285 14.9624 19.1667 10.0157 19.1667 6.0399C19.1667 3.6274 17.2042 1.6649 14.7917 1.6649Z" fill="black"/>
</g>
<defs>
<clipPath id="clip0_6548_3574">
<rect width="20" height="20" fill="white" transform="matrix(1 0 0 -1 0 20)"/>
</clipPath>
</defs>
</svg>
