<svg width="20" height="20" viewBox="0 0 20 20" fill="none" xmlns="http://www.w3.org/2000/svg">
<g clip-path="url(#clip0_6260_1740)">
<path d="M20 2.91667C20 3.15 19.8167 3.33333 19.5833 3.33333H0.416667C0.183333 3.33333 0 3.15 0 2.91667C0 2.68333 0.183333 2.5 0.416667 2.5H19.5833C19.8167 2.5 20 2.68333 20 2.91667ZM6.25 17.5H0.416667C0.183333 17.5 0 17.6833 0 17.9167C0 18.15 0.183333 18.3333 0.416667 18.3333H6.25C6.48333 18.3333 6.66667 18.15 6.66667 17.9167C6.66667 17.6833 6.48333 17.5 6.25 17.5ZM12.9167 10H0.416667C0.183333 10 0 10.1833 0 10.4167C0 10.65 0.183333 10.8333 0.416667 10.8333H12.9167C13.15 10.8333 13.3333 10.65 13.3333 10.4167C13.3333 10.1833 13.15 10 12.9167 10Z" fill="black"/>
</g>
<defs>
<clipPath id="clip0_6260_1740">
<rect width="20" height="20" fill="white"/>
</clipPath>
</defs>
</svg>
